<svg width="402" height="116" viewBox="0 0 402 116" fill="none" xmlns="http://www.w3.org/2000/svg">
<path d="M82.6539 59.1C82.6539 57.7667 82.5206 56.9333 82.2539 56.6C81.7872 55.9333 81.3539 55.5333 80.9539 55.4C79.7539 55.0667 77.0206 54.9 72.7539 54.9V53.9L92.0539 52.4V65C92.3206 62.2667 93.2539 59.7 94.8539 57.3C97.0539 53.9667 99.8206 52.3 103.154 52.3C104.421 52.3 105.787 52.7333 107.254 53.6C108.721 54.4 109.687 55.4333 110.154 56.7C110.687 57.9667 110.954 59.1 110.954 60.1C110.954 62.7667 109.854 64.6 107.654 65.6C107.121 65.8667 106.421 66 105.554 66C104.221 66 103.087 65.5333 102.154 64.6C101.221 63.6667 100.754 62.2667 100.754 60.4C100.754 59.2 101.187 58 102.054 56.8C102.987 55.6 104.054 55.1333 105.254 55.4C104.854 54.0667 103.654 53.4 101.654 53.4C99.7206 53.4 97.7872 54.8 95.8539 57.6C93.3206 61.2 92.0539 65.8333 92.0539 71.5V90.1C92.0539 91.4333 92.1539 92.3 92.3539 92.7C92.4872 92.9 92.7872 93.1 93.2539 93.3C94.6539 93.7667 97.5539 94 101.954 94V95H72.7539V94C74.6872 94 76.4206 93.9333 77.9539 93.8C79.5539 93.6667 80.9206 93.4 82.0539 93C82.4539 92.6667 82.6539 91.7 82.6539 90.1V59.1ZM123.714 74.4C123.714 81.5333 124.547 86.7 126.214 89.9C127.947 93.1 130.547 94.7 134.014 94.7C137.681 94.7 140.914 93.4667 143.714 91C147.114 88 148.814 83.9333 148.814 78.8H149.714C149.714 83.8 148.114 87.9 144.914 91.1C141.714 94.3 137.447 95.9 132.114 95.9C127.647 95.9 123.581 94.2 119.914 90.8C115.581 86.8 113.414 81.5667 113.414 75.1C113.414 68.1 115.547 62.4 119.814 58C123.547 54.2 127.747 52.3 132.414 52.3C136.747 52.3 140.347 53.5667 143.214 56.1C147.414 59.8333 149.514 65.9333 149.514 74.4H123.714ZM141.114 73.1C141.114 66.7 140.514 61.8333 139.314 58.5C138.181 55.1 136.314 53.4 133.714 53.4C130.047 53.4 127.447 55 125.914 58.2C124.447 61.4 123.714 66.3667 123.714 73.1H141.114ZM179.655 84V70.7C178.855 71.7667 177.655 72.4333 176.055 72.7C174.522 72.9 173.022 73.1 171.555 73.3C169.622 73.7667 168.089 74.8333 166.955 76.5C165.622 78.5 164.955 81.3 164.955 84.9C164.955 88.7667 165.322 91.4 166.055 92.8C166.855 94.1333 168.089 94.8 169.755 94.8C172.289 94.8 174.555 93.7667 176.555 91.7C178.622 89.5667 179.655 87 179.655 84ZM179.955 66V60.2C179.955 57.5333 179.522 55.7333 178.655 54.8C177.789 53.8667 175.922 53.4 173.055 53.4C170.722 53.4 168.689 53.8333 166.955 54.7C165.222 55.5667 164.089 56.7333 163.555 58.2C163.822 58.1333 164.155 58.1 164.555 58.1C165.822 58.1 166.855 58.6 167.655 59.6C168.455 60.6 168.855 61.7333 168.855 63C168.855 64.4667 168.355 65.6667 167.355 66.6C166.355 67.5333 165.189 68 163.855 68C162.989 68 162.222 67.7667 161.555 67.3C159.622 66.0333 158.655 64.4333 158.655 62.5C158.655 61.5667 158.855 60.5 159.255 59.3C160.189 56.7 162.522 54.8 166.255 53.6C168.922 52.7333 171.622 52.3 174.355 52.3C179.289 52.3 183.022 53.2333 185.555 55.1C187.822 56.7667 188.955 58.8667 188.955 61.4V83.5C188.955 87.5 189.055 89.9667 189.255 90.9C189.722 93.1667 190.922 94.3 192.855 94.3C194.589 94.3 195.755 93.4 196.355 91.6C196.955 89.8 197.255 87.2 197.255 83.8C197.255 82.8667 197.222 81.9333 197.155 81C197.155 80.0667 197.155 79.1 197.155 78.1V77.2H198.255V81.6C198.255 83 198.289 84.3333 198.355 85.6C198.355 89.4667 197.889 92.0667 196.955 93.4C195.755 95.0667 193.322 95.9 189.655 95.9C186.789 95.9 184.655 95.4 183.255 94.4C181.589 93.2 180.489 91.1667 179.955 88.3C178.555 91.5667 176.455 93.7667 173.655 94.9C171.989 95.5667 169.755 95.9 166.955 95.9C164.155 95.9 161.722 95.2333 159.655 93.9C156.789 92.1 155.355 89.3667 155.355 85.7C155.355 82.1 156.755 79.0667 159.555 76.6C162.355 74.2 165.755 72.8333 169.755 72.5C173.755 72.1667 176.455 71.6333 177.855 70.9C179.255 70.1667 179.955 68.5333 179.955 66ZM229.645 81.1C229.645 84.3667 228.845 87.4333 227.245 90.3C225.178 94.0333 222.311 95.9 218.645 95.9C213.845 95.9 209.878 94.0667 206.745 90.4C203.345 86.4 201.645 80.9 201.645 73.9C201.645 69.1 203.211 64.5 206.345 60.1C210.011 54.9 214.645 52.3 220.245 52.3C223.245 52.3 225.611 53.9667 227.345 57.3C228.545 59.6333 229.311 62.2 229.645 65V36.7C229.645 35.3667 229.445 34.4333 229.045 33.9C228.645 33.3667 228.078 33.0333 227.345 32.9C225.678 32.5667 221.945 32.4 216.145 32.4V31.4L239.045 29.7V89.1C239.045 90.4333 239.145 91.3 239.345 91.7C239.478 91.9 239.778 92.1 240.245 92.3C241.645 92.7667 244.378 93 248.445 93V94L229.645 95.9V81.1ZM229.145 73.8C229.145 67.1333 228.378 62.0667 226.845 58.6C225.311 55.1333 223.211 53.4 220.545 53.4C217.345 53.4 215.111 54.9 213.845 57.9C212.645 60.8333 212.045 66.2 212.045 74C212.045 81.0667 212.411 86 213.145 88.8C214.211 92.8667 216.411 94.9 219.745 94.9C222.011 94.9 224.045 93.2 225.845 89.8C228.045 85.7333 229.145 80.4 229.145 73.8ZM275.563 55.4C278.163 53.4667 279.53 52.4333 279.663 52.3V67.3L278.763 67.1C277.83 63.1 276.163 59.8333 273.763 57.3C271.163 54.5667 268.297 53.2 265.163 53.2C262.763 53.2 260.797 53.6667 259.263 54.6C257.197 55.8667 256.163 57.9667 256.163 60.9C256.163 63.3 257.297 65.1667 259.563 66.5C261.163 67.4333 264.363 68.4667 269.163 69.6C273.963 70.7333 277.33 72.0667 279.263 73.6C281.997 75.7333 283.363 79.1333 283.363 83.8C283.363 88.1333 281.897 91.3333 278.963 93.4C276.63 95.0667 273.697 95.9 270.163 95.9C267.23 95.9 265.13 95.7 263.863 95.3C261.997 94.7 259.963 93.2667 257.763 91C255.097 94.1333 253.697 95.7667 253.563 95.9V78.2H254.263C255.397 82.3333 256.33 85.2 257.063 86.8C258.063 89 259.13 90.6333 260.263 91.7C261.797 93.1667 263.23 94.1 264.563 94.5C265.963 94.8333 268.03 95 270.763 95C272.83 95 274.53 94.4667 275.863 93.4C277.463 92.1333 278.263 90.3333 278.263 88C278.263 85 277.197 82.7667 275.063 81.3C273.397 80.1667 270.43 79.1667 266.163 78.3C261.963 77.4333 258.697 76.0333 256.363 74.1C253.563 71.7667 252.163 68.6667 252.163 64.8C252.163 61.3333 253.33 58.4 255.663 56C258.063 53.5333 260.963 52.3 264.363 52.3C266.963 52.3 269.23 52.7333 271.163 53.6C273.697 54.7333 275.163 55.3333 275.563 55.4ZM307.027 104.6C305.627 108.667 304.327 111.5 303.127 113.1C301.727 114.967 299.927 115.9 297.727 115.9C294.927 115.9 292.86 115.6 291.527 115C290.193 114.467 289.327 113.5 288.927 112.1C288.593 110.767 288.427 109.7 288.427 108.9C288.427 106.9 289.36 105.4 291.227 104.4C291.96 104 292.727 103.8 293.527 103.8C294.793 103.8 295.893 104.267 296.827 105.2C297.827 106.2 298.327 107.5 298.327 109.1C298.327 111.967 296.993 113.567 294.327 113.9C294.793 114.367 295.26 114.633 295.727 114.7C296.26 114.767 296.793 114.8 297.327 114.8C299.127 114.8 300.593 114.1 301.727 112.7C302.86 111.367 304.06 108.867 305.327 105.2L308.527 96.2L294.127 57.1C293.527 55.5667 293.16 54.6667 293.027 54.4C292.627 53.7333 291.46 53.4 289.527 53.4H287.227V52.3H310.227V53.4C308.693 53.4 307.127 53.4333 305.527 53.5C303.993 53.5 303.227 53.9 303.227 54.7L303.827 56.7L313.327 82.4L320.027 62.8C320.827 60.4667 321.227 58.6667 321.227 57.4C321.227 54.7333 318.993 53.4 314.527 53.4V52.3H331.327V53.4C328.793 53.4 326.827 54.0333 325.427 55.3C324.027 56.5 322.46 59.5667 320.727 64.5L307.027 104.6Z" fill="#597127"/>
<path d="M225.001 0.00585938V23H177V0.00585938C177.19 0.00251214 177.38 1.38809e-06 177.571 0C187.989 6.05798e-05 196.959 5.01321 201 12.2207C205.041 5.01295 214.012 6.48646e-05 224.43 0C224.621 0 224.811 0.00251134 225.001 0.00585938Z" fill="#597127"/>
</svg>
