<svg width="112" height="45" viewBox="0 0 112 45" fill="none" xmlns="http://www.w3.org/2000/svg">
<rect width="112" height="45" rx="15" fill="#222E3A"/>
<path d="M84 9L86.9187 17.9828H96.3637L88.7225 23.5344L91.6412 32.5172L84 26.9656L76.3588 32.5172L79.2775 23.5344L71.6363 17.9828H81.0813L84 9Z" fill="#F7F4DC"/>
<path d="M84 9L86.9187 17.9828H96.3637L88.7225 23.5344L91.6412 32.5172L84 26.9656L76.3588 32.5172L79.2775 23.5344L71.6363 17.9828H81.0813L84 9Z" fill="#F7F4DC"/>
<path d="M84 9L86.9187 17.9828H96.3637L88.7225 23.5344L91.6412 32.5172L84 26.9656L76.3588 32.5172L79.2775 23.5344L71.6363 17.9828H81.0813L84 9Z" fill="#B5AF5C"/>
</svg>
