<svg width="300" height="100" viewBox="0 0 300 100" fill="none" xmlns="http://www.w3.org/2000/svg">
<path d="M11.4861 34.1067C11.4861 32.56 11.3315 31.5932 11.022 31.2065C10.4806 30.4331 9.97784 29.969 9.51376 29.8144C8.1215 29.4277 4.95028 29.2343 0 29.2343V28.0742L22.3921 26.3341V40.9513C22.7016 37.7804 23.7844 34.8028 25.6407 32.0186C28.1932 28.1516 31.4032 26.2181 35.2706 26.2181C36.7406 26.2181 38.3255 26.7208 40.0275 27.7262C41.7295 28.6543 42.8503 29.853 43.3921 31.3225C44.0105 32.792 44.3203 34.1067 44.3203 35.2668C44.3203 38.3604 43.044 40.4872 40.4916 41.6473C39.8732 41.9567 39.061 42.1114 38.0551 42.1114C36.5086 42.1114 35.1929 41.57 34.1104 40.4872C33.0279 39.4045 32.4861 37.7804 32.4861 35.6149C32.4861 34.2227 32.9885 32.8306 33.9944 31.4385C35.0769 30.0464 36.3148 29.505 37.7071 29.8144C37.243 28.2676 35.8507 27.4942 33.5303 27.4942C31.2871 27.4942 29.044 29.1183 26.8009 32.3666C23.8618 36.5429 22.3921 41.918 22.3921 48.4919V70.0696C22.3921 71.6164 22.5081 72.6218 22.7402 73.0858C22.8948 73.3179 23.2429 73.5499 23.7844 73.7819C25.4087 74.3233 28.7733 74.594 33.8784 74.594V75.7541H0V74.594C2.24304 74.594 4.25416 74.5166 6.03312 74.362C7.88946 74.2073 9.47512 73.8979 10.79 73.4339C11.2541 73.0472 11.4861 71.9258 11.4861 70.0696V34.1067ZM59.1246 51.8562C59.1246 60.1314 60.0911 66.1253 62.0251 69.8376C64.0358 73.5499 67.0524 75.406 71.0748 75.406C75.3293 75.406 79.0803 73.9753 82.3289 71.1137C86.2736 67.6334 88.246 62.9157 88.246 56.9606H89.2902C89.2902 62.761 87.4338 67.5174 83.7211 71.2297C80.0084 74.942 75.0578 76.7981 68.8704 76.7981C63.6877 76.7981 58.9703 74.826 54.7158 70.8817C49.6886 66.2413 47.1744 60.1702 47.1744 52.6682C47.1744 44.5476 49.6491 37.935 54.5998 32.8306C58.9308 28.4223 63.8037 26.2181 69.2185 26.2181C74.2457 26.2181 78.4224 27.6876 81.7488 30.6264C86.6217 34.9574 89.0581 42.034 89.0581 51.8562H59.1246ZM79.3123 50.348C79.3123 42.9234 78.6162 37.2776 77.2239 33.4107C75.9094 29.4664 73.7433 27.4942 70.7267 27.4942C66.4722 27.4942 63.4557 29.3503 61.6771 33.0626C59.975 36.7749 59.1246 42.5368 59.1246 50.348H79.3123ZM124.028 62.993V47.5638C123.1 48.8013 121.708 49.5746 119.851 49.884C118.073 50.116 116.332 50.348 114.63 50.5801C112.388 51.1215 110.609 52.3588 109.293 54.2923C107.747 56.6125 106.973 59.8608 106.973 64.0371C106.973 68.5229 107.399 71.5777 108.249 73.2019C109.177 74.7486 110.609 75.5221 112.542 75.5221C115.482 75.5221 118.111 74.3233 120.431 71.9258C122.83 69.4509 124.028 66.4733 124.028 62.993ZM124.376 42.1114V35.3828C124.376 32.2892 123.874 30.201 122.868 29.1183C121.863 28.0356 119.697 27.4942 116.371 27.4942C113.664 27.4942 111.305 27.9969 109.293 29.0023C107.283 30.0078 105.968 31.3611 105.349 33.0626C105.658 32.9853 106.045 32.9466 106.509 32.9466C107.979 32.9466 109.177 33.5267 110.106 34.6868C111.034 35.8469 111.498 37.1616 111.498 38.6311C111.498 40.3326 110.918 41.7247 109.757 42.8074C108.597 43.8901 107.244 44.4316 105.697 44.4316C104.692 44.4316 103.802 44.1609 103.028 43.6195C100.786 42.15 99.6636 40.2939 99.6636 38.051C99.6636 36.9683 99.8957 35.7309 100.36 34.3387C101.443 31.3225 104.15 29.1183 108.481 27.7262C111.576 26.7208 114.708 26.2181 117.879 26.2181C123.603 26.2181 127.935 27.3008 130.873 29.4664C133.504 31.3999 134.818 33.8361 134.818 36.7749V62.413C134.818 67.0534 134.934 69.915 135.166 70.9977C135.708 73.6273 137.1 74.942 139.343 74.942C141.355 74.942 142.708 73.8979 143.404 71.8097C144.1 69.7216 144.448 66.7053 144.448 62.761C144.448 61.6783 144.41 60.5955 144.332 59.5128C144.332 58.43 144.332 57.3086 144.332 56.1485V55.1044H145.608V60.2088C145.608 61.8329 145.648 63.3797 145.724 64.8492C145.724 69.3349 145.183 72.3512 144.1 73.8979C142.708 75.8314 139.885 76.7981 135.63 76.7981C132.305 76.7981 129.829 76.2181 128.205 75.058C126.272 73.6659 124.996 71.3071 124.376 67.9814C122.752 71.7711 120.315 74.3233 117.067 75.638C115.134 76.4115 112.542 76.7981 109.293 76.7981C106.045 76.7981 103.222 76.0247 100.824 74.478C97.4987 72.3898 95.8349 69.2189 95.8349 64.9652C95.8349 60.7889 97.4592 57.27 100.708 54.4084C103.956 51.6241 107.901 50.0386 112.542 49.652C117.183 49.2653 120.315 48.6465 121.94 47.7958C123.564 46.9451 124.376 45.0502 124.376 42.1114ZM182.027 59.6288C182.027 63.4184 181.099 66.976 179.243 70.3016C176.844 74.6326 173.518 76.7981 169.265 76.7981C163.696 76.7981 159.093 74.6713 155.458 70.4176C151.514 65.7773 149.541 59.3968 149.541 51.2761C149.541 45.7077 151.358 40.3712 154.994 35.2668C159.248 29.2343 164.624 26.2181 171.121 26.2181C174.602 26.2181 177.347 28.1516 179.359 32.0186C180.751 34.7254 181.64 37.703 182.027 40.9513V8.12065C182.027 6.5739 181.795 5.49107 181.331 4.87239C180.867 4.25371 180.209 3.86694 179.359 3.7123C177.425 3.32564 173.094 3.13225 166.364 3.13225V1.97216L192.933 0V68.9095C192.933 70.4563 193.049 71.4617 193.281 71.9258C193.436 72.1578 193.784 72.3898 194.325 72.6218C195.95 73.1632 199.121 73.4339 203.839 73.4339V74.594L182.027 76.7981V59.6288ZM181.447 51.1601C181.447 43.4261 180.557 37.5484 178.779 33.5267C176.999 29.505 174.562 27.4942 171.469 27.4942C167.757 27.4942 165.165 29.2343 163.696 32.7146C162.304 36.1175 161.607 42.3434 161.607 51.3921C161.607 59.5901 162.032 65.3132 162.884 68.5615C164.12 73.2792 166.673 75.638 170.541 75.638C173.17 75.638 175.53 73.6659 177.618 69.7216C180.171 65.0038 181.447 58.8167 181.447 51.1601ZM235.302 29.8144C238.318 27.5716 239.904 26.3727 240.059 26.2181V43.6195L239.015 43.3875C237.932 38.7471 235.998 34.9574 233.213 32.0186C230.197 28.8477 226.872 27.2622 223.236 27.2622C220.451 27.2622 218.17 27.8036 216.39 28.8863C213.993 30.3558 212.794 32.792 212.794 36.1949C212.794 38.9791 214.109 41.1447 216.738 42.6914C218.595 43.7741 222.307 44.973 227.876 46.2877C233.446 47.6024 237.352 49.1493 239.595 50.9281C242.767 53.4029 244.352 57.3472 244.352 62.761C244.352 67.7881 242.651 71.5004 239.247 73.8979C236.54 75.8314 233.137 76.7981 229.037 76.7981C225.634 76.7981 223.197 76.5661 221.727 76.1021C219.562 75.406 217.203 73.7433 214.65 71.1137C211.557 74.7486 209.933 76.6435 209.777 76.7981V56.2645H210.589C211.905 61.0595 212.987 64.3852 213.838 66.2413C214.998 68.7935 216.236 70.6883 217.551 71.9258C219.33 73.6273 220.993 74.71 222.54 75.174C224.164 75.5607 226.562 75.7541 229.733 75.7541C232.131 75.7541 234.103 75.1354 235.65 73.8979C237.506 72.4284 238.434 70.3403 238.434 67.6334C238.434 64.1531 237.198 61.5623 234.722 59.8608C232.789 58.5461 229.346 57.386 224.396 56.3805C219.523 55.3751 215.734 53.7509 213.026 51.5081C209.777 48.8013 208.153 45.205 208.153 40.7193C208.153 36.6976 209.507 33.2947 212.214 30.5104C214.998 27.6488 218.363 26.2181 222.307 26.2181C225.324 26.2181 227.954 26.7208 230.197 27.7262C233.137 29.0409 234.838 29.737 235.302 29.8144ZM271.807 86.8909C270.183 91.609 268.674 94.8956 267.282 96.7517C265.658 98.9176 263.569 100 261.017 100C257.768 100 255.37 99.652 253.824 98.9559C252.276 98.3376 251.271 97.2158 250.807 95.5916C250.419 94.0452 250.227 92.8074 250.227 91.8793C250.227 89.5592 251.309 87.819 253.475 86.6589C254.326 86.1949 255.216 85.9629 256.144 85.9629C257.613 85.9629 258.889 86.5043 259.973 87.587C261.133 88.7471 261.713 90.2552 261.713 92.1114C261.713 95.4373 260.165 97.2935 257.072 97.6798C257.613 98.2216 258.155 98.5302 258.696 98.6079C259.315 98.6856 259.933 98.7239 260.553 98.7239C262.641 98.7239 264.342 97.9118 265.658 96.2877C266.972 94.7413 268.364 91.8411 269.834 87.587L273.547 77.1462L256.84 31.7865C256.144 30.0078 255.718 28.9637 255.564 28.6543C255.1 27.8809 253.746 27.4942 251.503 27.4942H248.835V26.2181H275.519V27.4942C273.74 27.4942 271.923 27.5328 270.067 27.6102C268.287 27.6102 267.398 28.0742 267.398 29.0023L268.094 31.3225L279.116 61.1369L286.89 38.3991C287.818 35.6922 288.282 33.6041 288.282 32.1346C288.282 29.041 285.69 27.4942 280.508 27.4942V26.2181H300V27.4942C297.06 27.4942 294.779 28.2289 293.155 29.6984C291.53 31.0905 289.712 34.6481 287.702 40.3712L271.807 86.8909Z" fill="#597127"/>
</svg>
